<?xml version="1.0" encoding="UTF-8"?>
<svg width="566px" height="902px" viewBox="0 0 566 902" version="1.1" xmlns="http://www.w3.org/2000/svg" xmlns:xlink="http://www.w3.org/1999/xlink">
    <!-- Generator: Sketch 52.6 (67491) - http://www.bohemiancoding.com/sketch -->
    <title>aws-diagram</title>
    <desc>Created with Sketch.</desc>
    <defs>
        <linearGradient x1="-20.7066667%" y1="120.706667%" x2="120.72%" y2="-20.72%" id="linearGradient-1">
            <stop stop-color="#BD0816" offset="0%"></stop>
            <stop stop-color="#FF5252" offset="100%"></stop>
        </linearGradient>
    </defs>
    <g id="Page-1" stroke="none" stroke-width="1" fill="none" fill-rule="evenodd">
        <g id="aws-diagram" transform="translate(-1.000000, 0.000000)">
            <g id="Group" transform="translate(35.000000, 35.000000)" fill="#000000">
                <g transform="translate(0.000000, 56.000000)" id="Path">
                    <path d="M11,0 L11,167" stroke="#FF0000" stroke-width="8" opacity="0"></path>
                    <path d="M11,0 L11,167" stroke="#000000" stroke-width="2" stroke-linecap="round"></path>
                    <polygon stroke="#000000" stroke-linejoin="round" points="11 180 22 156 11 162 0 156"></polygon>
                </g>
                <g transform="translate(0.000000, 596.000000)" id="Path">
                    <path d="M11,180 L11,14" stroke="#FF0000" stroke-width="8" opacity="0"></path>
                    <path d="M11,180 L11,14" stroke="#000000" stroke-width="2" stroke-linecap="round"></path>
                    <polygon stroke="#000000" stroke-linejoin="round" points="11 0 0 24 11 18 22 24"></polygon>
                </g>
                <g transform="translate(0.000000, 596.000000)" id="Path">
                    <path d="M11,0 L11,167" stroke="#FF0000" stroke-width="8" opacity="0"></path>
                    <path d="M11,0 L11,167" stroke="#000000" stroke-width="2" stroke-linecap="round"></path>
                    <polygon stroke="#000000" stroke-linejoin="round" points="11 180 22 156 11 162 0 156"></polygon>
                </g>
                <g transform="translate(0.000000, 56.000000)" id="Path">
                    <path d="M11,180 L11,13" stroke="#FF0000" stroke-width="8" opacity="0"></path>
                    <path d="M11,180 L11,13" stroke="#000000" stroke-width="2" stroke-linecap="round"></path>
                    <polygon stroke="#000000" stroke-linejoin="round" points="11 0 0 24 11 18 22 24"></polygon>
                </g>
                <g transform="translate(56.000000, 0.000000)" id="Path">
                    <path d="M0,11 L301,11" stroke="#FF0000" stroke-width="8" opacity="0"></path>
                    <path d="M0,11 L301,11" stroke="#000000" stroke-width="2" stroke-linecap="round"></path>
                    <polygon stroke="#000000" stroke-linejoin="round" points="315 11 291 0 297 11 291 22"></polygon>
                </g>
                <g transform="translate(56.000000, 0.000000)" id="Path">
                    <path d="M315,11 L13,11" stroke="#FF0000" stroke-width="8" opacity="0"></path>
                    <path d="M315,11 L13,11" stroke="#000000" stroke-width="2" stroke-linecap="round"></path>
                    <polygon stroke="#000000" stroke-linejoin="round" points="0 11 24 22 18 11 24 0"></polygon>
                </g>
                <g transform="translate(0.000000, 326.000000)" id="Path">
                    <path d="M11,0 L11,167" stroke="#FF0000" stroke-width="8" opacity="0"></path>
                    <path d="M11,0 L11,167" stroke="#000000" stroke-width="2" stroke-linecap="round"></path>
                    <polygon stroke="#000000" stroke-linejoin="round" points="11 180 22 156 11 162 0 156"></polygon>
                </g>
                <g transform="translate(0.000000, 326.000000)" id="Path">
                    <path d="M11,180 L11,14" stroke="#FF0000" stroke-width="8" opacity="0"></path>
                    <path d="M11,180 L11,14" stroke="#000000" stroke-width="2" stroke-linecap="round"></path>
                    <polygon stroke="#000000" stroke-linejoin="round" points="11 0 0 24 11 18 22 24"></polygon>
                </g>
            </g>
            <g id="Group">
                <g id="7b1b57e6-0308-462d-ab81-a2fbd096c604" fill="#232F3E">
                    <g id="svg13">
                        <g id="Working" transform="translate(0.042900, 0.062900)">
                            <circle id="path819" opacity="0.05" cx="46.015047" cy="24.2119956" r="20.6560263"></circle>
                            <path d="M89.04285,90.842856 L2.87235,90.842856 C1.81477993,90.842856 0.95745,89.9855261 0.95745,88.927956 L0.95745,83.183256 C0.945570849,63.096042 14.6815265,45.6096008 34.200114,40.863966 C34.6656538,40.7574291 35.153851,40.8184537 35.578842,41.036307 C42.0354682,44.5612818 49.8414338,44.5612818 56.29806,41.036307 C56.7144738,40.8131031 57.1987036,40.7517218 57.657639,40.863966 C77.2059994,45.5887298 90.9720563,63.0911747 90.95775,83.202405 L90.95775,88.947105 C90.9472486,89.9971893 90.0929868,90.8429085 89.04285,90.842856 Z" id="path8-6" opacity="0.05"></path>
                            <path d="M89.04285,90.842856 L2.87235,90.842856 C1.81477993,90.842856 0.95745,89.9855261 0.95745,88.927956 L0.95745,83.183256 C0.945570849,63.096042 14.6815265,45.6096008 34.200114,40.863966 C34.6656538,40.7574291 35.153851,40.8184537 35.578842,41.036307 C42.0354682,44.5612818 49.8414338,44.5612818 56.29806,41.036307 C56.7144738,40.8131031 57.1987036,40.7517218 57.657639,40.863966 C77.2059994,45.5887298 90.9720563,63.0911747 90.95775,83.202405 L90.95775,88.947105 C90.9472486,89.9971893 90.0929868,90.8429085 89.04285,90.842856 Z M4.78724677,87.013056 L87.1279517,87.013056 L87.12795,83.183256 C87.1332254,65.11909 74.9302106,49.3338999 57.447,44.789511 C53.8795893,46.5760215 49.9473149,47.5132135 45.9576,47.527818 C41.9653756,47.5344756 38.0282602,46.5961297 34.4682,44.789511 C16.9820167,49.3416399 4.77999769,65.1334141 4.78725,83.202405 L4.78724677,87.013056 Z" id="path8" fill-rule="nonzero"></path>
                            <path d="M45.9576,47.393775 C42.0092107,47.4080671 38.1218213,46.4197478 34.65969,44.521425 C24.793238,38.9922416 20.3435363,27.1602913 24.1214549,16.4998001 C27.8993736,5.83930879 38.8065558,-0.550391523 49.9529502,1.3670636 C61.0993447,3.28451872 69.2443525,12.9516662 69.242784,24.261783 C69.2494147,32.7289109 64.5991721,40.5136525 57.140616,44.521425 C53.7066323,46.3858792 49.8650269,47.3725929 45.9576,47.393775 Z M45.9576,4.902144 C37.0562137,4.72851465 29.1908267,10.6656646 26.9183418,19.2738372 C24.645857,27.8820099 28.5558825,36.9277693 36.3831,41.17035 C42.2655876,44.3608834 49.3623774,44.3608834 55.244865,41.17035 C63.0211271,36.9515679 66.9338551,27.9863184 64.7392147,19.4159084 C62.5445744,10.8454983 54.8044602,4.8642132 45.9576,4.902144 Z" id="path10" fill-rule="nonzero"></path>
                        </g>
                    </g>
                </g>
                <g id="ab6891d8-743b-424d-ae23-05722105d8bc" transform="translate(1.000000, 271.000000)">
                    <g id="svg25">
                        <g id="Reference">
                            <polygon id="Purple_Light_BG" fill="#693CC5" points="0 0 90 0 90 90 0 90"></polygon>
                            <g id="Product_Icon" transform="translate(14.400000, 15.600000)" fill="#FFFFFF">
                                <path d="M43.812,58.2 C43.5578083,58.2009053 43.309895,58.1210688 43.104,57.972 C42.7893653,57.747989 42.601786,57.3862288 42.6,57 L42.6,1.8 C42.6017395,1.38301627 42.8198213,0.9968298 43.176,0.78 C43.5364649,0.546771426 43.9940682,0.523891262 44.376,0.72 L59.976,8.34 C60.3841985,8.53999058 60.6443574,8.95345739 60.648,9.408 L60.648,51.816 C60.6744744,52.3570333 60.3352062,52.8487264 59.82,53.016 L44.22,58.2 C44.084701,58.2195287 43.947299,58.2195287 43.812,58.2 Z M45.012,3.732 L45.012,55.332 L58.212,50.952 L58.212,10.152 L45.012,3.732 Z" id="path9" fill-rule="nonzero"></path>
                                <path d="M17.4,58.2 C17.2725838,58.2172886 17.1434162,58.2172886 17.016,58.2 L1.416,53.016 C0.905554874,52.8444073 0.571930239,52.3537828 0.6,51.816 L0.6,9.408 C0.603642596,8.95345739 0.863801491,8.53999058 1.272,8.34 L16.872,0.72 C17.2539318,0.523891262 17.7115351,0.546771426 18.072,0.78 C18.4235825,0.999738545 18.6368297,1.38539824 18.636,1.8 L18.636,57 C18.634214,57.3862288 18.4466347,57.747989 18.132,57.972 C17.9221042,58.1311341 17.6631364,58.2117962 17.4,58.2 Z M3,51 L16.2,55.38 L16.2,3.78 L3,10.224 L3,51 Z" id="path11" fill-rule="nonzero"></path>
                                <path d="M42.6,17.4 L39,17.4 L39,15 L42.6,15 L42.6,17.4 Z M35.4,17.4 L31.8,17.4 L31.8,15 L35.4,15 L35.4,17.4 Z M28.2,17.4 L24.6,17.4 L24.6,15 L28.2,15 L28.2,17.4 Z M21,17.4 L17.4,17.4 L17.4,15 L21,15 L21,17.4 Z" id="path13" fill-rule="nonzero"></path>
                                <path d="M42.6,43.8 L39,43.8 L39,41.4 L42.6,41.4 L42.6,43.8 Z M35.4,43.8 L31.8,43.8 L31.8,41.4 L35.4,41.4 L35.4,43.8 Z M28.2,43.8 L24.6,43.8 L24.6,41.4 L28.2,41.4 L28.2,43.8 Z M21,43.8 L17.4,43.8 L17.4,41.4 L21,41.4 L21,43.8 Z" id="path15" fill-rule="nonzero"></path>
                                <path d="M25.332,33.528 L20.82,29.676 C20.5534003,29.4480141 20.3999077,29.114789 20.3999077,28.764 C20.3999077,28.413211 20.5534003,28.0799859 20.82,27.852 L25.32,24 L26.88,25.824 L23.448,28.8 L26.88,31.74 L25.332,33.528 Z" id="path17"></path>
                                <path d="M35.88,33.528 L34.32,31.704 L37.752,28.8 L34.308,25.872 L35.868,24 L40.38,27.84 C40.6465997,28.0679859 40.8000923,28.401211 40.8000923,28.752 C40.8000923,29.102789 40.6465997,29.4360141 40.38,29.664 L35.88,33.528 Z" id="path19"></path>
                                <polygon id="rect21" transform="translate(30.592838, 29.388780) rotate(-71.320000) translate(-30.592838, -29.388780) " points="23.1468375 28.1887798 38.0388375 28.1887798 38.0388375 30.5887798 23.1468375 30.5887798"></polygon>
                            </g>
                        </g>
                    </g>
                </g>
                <g id="71cc3795-de14-49b3-909e-30d348807926" transform="translate(1.000000, 541.000000)">
                    <g id="svg15">
                        <g id="Reference">
                            <polygon id="Orange_Light_BG" fill="#D86613" points="0 0 90 0 90 90 0 90"></polygon>
                            <g id="Product_Icon" transform="translate(15.600000, 14.400000)" fill="#FFFFFF" fill-rule="nonzero">
                                <path d="M57,60.6 L42.216,60.6 C41.7544087,60.5986933 41.3344832,60.3327405 41.136,59.916 L20.232,16.2 L11.388,16.2 C10.7252583,16.2 10.188,15.6627417 10.188,15 L10.188,1.8 C10.188,1.1372583 10.7252583,0.6 11.388,0.6 L29.868,0.6 C30.3295913,0.601306676 30.7495168,0.867259461 30.948,1.284 L51.756,45 L57,45 C57.6627417,45 58.2,45.5372583 58.2,46.2 L58.2,59.4 C58.2,60.0627417 57.6627417,60.6 57,60.6 Z M42.972,58.2 L55.8,58.2 L55.8,47.4 L51,47.4 C50.5384087,47.3986933 50.1184832,47.1327405 49.92,46.716 L29.112,3 L12.6,3 L12.6,13.8 L21,13.8 C21.4615913,13.8013067 21.8815168,14.0672595 22.08,14.484 L42.972,58.2 Z" id="path9"></path>
                                <path d="M17.376,60.6 L1.776,60.6 C1.36139824,60.6008297 0.975738545,60.3875825 0.756,60.036 C0.522771426,59.6755351 0.499891262,59.2179318 0.696,58.836 L17.016,24.744 C17.2144832,24.3272595 17.6344087,24.0613067 18.096,24.06 C18.5548741,24.0590817 18.9740959,24.3199308 19.176,24.732 L26.988,40.8 C27.1473113,41.1297672 27.1473113,41.5142328 26.988,41.844 L18.468,59.844 C18.2893501,60.2928279 17.8589877,60.5907711 17.376,60.6 Z M3.696,58.2 L16.62,58.2 L24.576,41.4 L18.108,28.02 L3.696,58.2 Z" id="path11"></path>
                            </g>
                        </g>
                    </g>
                </g>
                <g id="eec1bbd4-88c0-4c14-ad26-47e051fdb090" transform="translate(1.000000, 811.000000)">
                    <g id="svg21">
                        <g id="Reference">
                            <polygon id="Blue_Light_BG" fill="#3B48CC" points="0 0 90 0 90 90 0 90"></polygon>
                            <g id="Product_Icon" transform="translate(19.200000, 14.400000)" fill="#FFFFFF">
                                <path d="M41.1,34.176 L33.168,42.096 C34.5949873,41.6978988 35.9718922,41.1382796 37.272,40.428 C38.0406895,40.9048165 38.5624022,41.6939618 38.7,42.588 C38.7,44.784 34.044,47.172 27.132,48.144 C24.9998542,48.4323882 22.8515063,48.5846965 20.7,48.6 L19.5,48.6 C9.804,48.372 2.7,45.312 2.7,42.6 C2.83759777,41.7059618 3.35931048,40.9168165 4.128,40.44 C7.896,42.54 14.004,43.788 20.7,43.788 L20.832,43.788 L21.504,41.388 L20.7,41.388 C14.1,41.388 7.98,40.08 4.728,38.016 C3.432,37.164 2.712,36.24 2.7,35.436 L2.7,29.88 C6.372,32.688 13.692,34.152 20.7,34.152 C21.648,34.152 22.596,34.152 23.52,34.068 L24.204,31.668 C23.004,31.752 21.888,31.788 20.7,31.788 C10.404,31.788 2.7,28.632 2.7,25.788 C2.83759777,24.8939618 3.35931048,24.1048165 4.128,23.628 C7.44,25.488 12.528,26.652 18.3,26.916 L18.36,24.516 C12.684,24.24 7.56,23.016 4.728,21.204 C3.444,20.376 2.724,19.44 2.7,18.624 L2.7,13.08 C6.372,15.888 13.692,17.352 20.7,17.352 L20.964,17.352 L22.236,14.952 L20.7,14.952 C10.404,14.952 2.7,11.796 2.7,8.952 C2.7,6.108 10.404,2.952 20.7,2.952 C24.1677239,2.93730938 27.6246027,3.34020901 30.996,4.152 L37.584,4.152 C33.984,1.956 27.768,0.552 20.7,0.552 C10.812,0.552 0.3,3.48 0.3,8.952 L0.3,18.612 C0.372993221,19.9960174 1.03198076,21.2834434 2.112,22.152 C1.01795272,23.035224 0.357634342,24.3471148 0.3,25.752 L0.3,35.352 C0.356080072,36.7572877 1.01670354,38.0697846 2.112,38.952 C1.01795272,39.835224 0.357634342,41.1471148 0.3,42.552 L0.3,52.152 C0.292931509,52.2358513 0.292931509,52.3201487 0.3,52.404 C0.624,57.672 10.944,60.504 20.7,60.504 C30.456,60.504 40.776,57.672 41.1,52.38 C41.1118182,52.2964157 41.1118182,52.2115843 41.1,52.128 L41.1,42.528 C41.0534432,41.1202666 40.3909342,39.8040235 39.288,38.928 C40.3832965,38.0457846 41.0439199,36.7332877 41.1,35.328 L41.1,34.176 Z M38.7,52.176 C38.7,55.008 30.996,58.176 20.7,58.176 C10.404,58.176 2.7,55.044 2.7,52.176 L2.7,46.656 C6.372,49.44 13.692,50.904 20.7,50.904 C27.708,50.904 35.028,49.44 38.7,46.656 L38.7,52.176 Z" id="path9" fill-rule="nonzero"></path>
                                <circle id="circle11" cx="6.3" cy="18.624" r="1.5"></circle>
                                <circle id="circle13" cx="6.3" cy="35.424" r="1.5"></circle>
                                <circle id="circle15" cx="6.3" cy="52.224" r="1.5"></circle>
                                <path d="M23.7,47.376 C23.4886966,47.3738055 23.2817194,47.3158519 23.1,47.208 C22.6189846,46.931024 22.3906965,46.3603036 22.548,45.828 L29.292,23.376 L22.5,23.376 C22.0734749,23.3814498 21.6761171,23.1600683 21.4562907,22.7945144 C21.2364643,22.4289604 21.2272164,21.9741885 21.432,21.6 L28.632,7.2 C28.8353403,6.79646442 29.2481301,6.54136956 29.7,6.54 L45.3,6.54 C45.6946592,6.52037434 46.0736842,6.69629786 46.3134492,7.01038995 C46.5532141,7.32448203 46.6229832,7.73647876 46.5,8.112 L43.428,17.34 L50.16,17.34 C50.6393074,17.3418226 51.0715575,17.6286944 51.2594222,18.0696545 C51.4472868,18.5106145 51.354728,19.0210736 51.024,19.368 L24.624,46.968 C24.391024,47.2333151 24.0530253,47.3825613 23.7,47.376 Z M24.444,20.976 L30.9,20.976 C31.2777088,20.976 31.6333747,21.153833 31.86,21.456 C32.0866253,21.758167 32.1577585,22.1493996 32.052,22.512 L26.28,41.712 L47.292,19.752 L41.7,19.752 C41.3024159,19.7731253 40.920241,19.5956778 40.6798181,19.2783196 C40.4393952,18.9609614 40.3720328,18.5450196 40.5,18.168 L43.572,8.952 L30.372,8.952 L24.444,20.976 Z" id="path17" fill-rule="nonzero"></path>
                            </g>
                        </g>
                    </g>
                </g>
            </g>
            <g id="e5852346-c6dc-4353-b1b3-9228c55fa53d" transform="translate(360.000000, 0.000000)">
                <g id="Group">
                    <g transform="translate(0.115885, 0.115885)">
                        <circle id="Oval" fill="#000000" cx="45.8841149" cy="45.8841149" r="45.2803765"></circle>
                        <g transform="translate(0.603738, 0.603738)" id="Reference">
                            <g>
                                <polygon id="Red_Gradient" fill="url(#linearGradient-1)" points="0 0 90.5607531 0 90.5607531 90.5607531 0 90.5607531"></polygon>
                                <g id="Icon_Test" transform="translate(14.489720, 18.112151)" fill="#FFFFFF">
                                    <path d="M51.9214984,0 L5.38534612,0 C2.78433753,0.136617198 0.782423409,2.34897512 0.905607531,4.9506545 L0.905607531,34.8960769 C0.782423409,37.4977562 2.78433753,39.7101142 5.38534612,39.8467314 L31.0925252,39.8467314 L31.0925252,37.4317779 L5.38534612,37.4317779 C4.14247406,37.2519708 3.24483133,36.1496025 3.32056095,34.8960769 L3.32056095,14.4897205 L25.0551417,14.4897205 L25.0551417,32.6018711 C25.0551417,33.2687421 25.5957474,33.8093478 26.2626184,33.8093478 L35.9224321,33.8093478 L35.9224321,31.3943944 L28.0134596,31.3943944 L28.0134596,31.0321514 C28.0069275,26.8929198 30.7238846,23.2424694 34.6908058,22.0605995 C36.5769457,22.9240485 38.7454514,22.9240485 40.6315912,22.0605995 C42.858539,22.7327359 44.7590177,24.203242 45.9686383,26.1901698 L48.0213487,24.9826931 C46.7781467,22.9531504 44.9518319,21.3456567 42.7808998,20.3701321 C43.7715473,19.1940954 44.3146939,17.7057882 44.3143952,16.1681131 C44.3143952,12.5003228 41.3410636,9.52699122 37.6732733,9.52699122 C34.0054829,9.52699122 31.0321514,12.5003228 31.0321514,16.1681131 C31.063703,17.6807984 31.6184047,19.1358236 32.6018711,20.2856087 C30.5120765,21.2123896 28.7403114,22.732245 27.5063194,24.6566744 L27.5063194,8.45233695 L48.0334234,8.45233695 L48.0334234,25.3570109 L50.4483769,25.3570109 L50.4483769,14.4897205 L54.070807,14.4897205 L54.070807,26.5644876 L56.4857604,26.5644876 L56.4857604,4.9506545 C56.5446111,3.68691346 56.095113,2.45220534 55.2375791,1.52207604 C54.3800453,0.591946737 53.1858501,0.0438129649 51.9214984,0 Z M37.6732733,11.9177951 C38.7877235,11.9113718 39.8590785,12.3479348 40.6516428,13.1314412 C41.4442072,13.9149477 41.8930553,14.9812141 41.8994418,16.0956645 C41.8891092,17.6122173 41.0507032,19.0018405 39.7139089,19.7180946 C38.4364762,20.4072354 36.8979957,20.4072354 35.6205629,19.7180946 C34.2903065,18.996684 33.4576406,17.6089075 33.4471048,16.0956645 C33.4534913,14.9812141 33.9023394,13.9149477 34.6949038,13.1314412 C35.4874681,12.3479348 36.558823,11.9113718 37.6732733,11.9177951 Z M50.4121526,12.0747671 L50.4121526,7.24486025 C50.4121526,6.57798928 49.8715468,6.03738354 49.2046758,6.03738354 L26.2626184,6.03738354 C25.5957474,6.03738354 25.0551417,6.57798928 25.0551417,7.24486025 L25.0551417,12.0747671 L3.32056095,12.0747671 L3.32056095,4.9506545 C3.24483133,3.69712883 4.14247406,2.59476057 5.38534612,2.41495342 L51.9214984,2.41495342 C53.1740449,2.58337338 54.0848964,3.68903131 54.0104331,4.9506545 L54.0104331,12.0747671 L50.4121526,12.0747671 Z" id="Shape" fill-rule="nonzero"></path>
                                    <path d="M5.7596639,20.4667302 L19.0177581,20.4667302 L19.0177581,22.8816836 L5.7596639,22.8816836 L5.7596639,20.4667302 Z M5.7596639,26.5041137 L14.1878513,26.5041137 L14.1878513,28.9190672 L5.7596639,28.9190672 L5.7596639,26.5041137 Z M16.6269543,26.5041137 L20.2252349,26.5041137 L20.2252349,28.9190672 L16.6269543,28.9190672 L16.6269543,26.5041137 Z M48.4681151,54.3968257 C43.9164155,54.4186229 39.730615,51.9062652 37.6091126,47.8791481 C35.4876103,43.852031 35.7827946,38.9790715 38.3748936,35.2374854 C40.9669926,31.4958993 45.4254505,29.5071759 49.9412366,30.0782448 C54.4033089,30.6293621 58.2023327,33.5862283 59.8320049,37.7764535 C61.4616771,41.9666788 60.6587323,46.7133533 57.7415362,50.1344329 C56.6108668,51.4354199 55.2261025,52.4914568 53.6723397,53.237648 C52.0431729,53.9997707 50.2667293,54.3954518 48.4681151,54.3968257 Z M48.4681151,32.3966001 C46.9172152,32.3959144 45.3889496,32.7686621 44.012526,33.4833291 C39.2845334,35.9369057 37.3848621,41.7196418 39.7367759,46.4990197 C42.0886897,51.2783977 47.8294816,53.3012907 52.6580592,51.0521152 C53.911918,50.4574741 55.0267764,49.6059033 55.9303211,48.5526384 C58.275009,45.8090171 58.920572,41.9981272 57.6103038,38.635358 C56.3000357,35.2725889 53.2463426,32.9030757 49.663517,32.4690487 C49.2588732,32.4198797 48.8515847,32.3956843 48.4439655,32.3966001 L48.4681151,32.3966001 Z" id="Shape" fill-rule="nonzero"></path>
                                    <path d="M46.5482271,47.3330869 C46.2272762,47.3349425 45.9187922,47.2089421 45.6909186,46.9829187 L41.7907689,43.0827689 L43.4691615,41.3802268 L46.5120028,44.4230681 L53.39462,37.5283761 L55.1092369,39.242993 L47.3572365,46.9829187 C47.141334,47.1974268 46.8523904,47.3224919 46.5482271,47.3330869 Z" id="Path"></path>
                                </g>
                            </g>
                        </g>
                    </g>
                </g>
            </g>
            <g id="Group" transform="translate(54.000000, 16.000000)" font-family="Helvetica" font-weight="normal">
                <g id="5a4038ad-9ffb-43fe-9ec9-8b53d0bea1ca" transform="translate(45.000000, 293.000000)" fill="#F5B720" font-size="18.75">
                    <g id="Group">
                        <g transform="translate(0.000000, 0.100000)" id="Amazon" stroke="#FFFFFF" stroke-width="4">
                            <text>
                                <tspan x="0" y="18.1">Amazon</tspan>
                            </text>
                        </g>
                        <g transform="translate(0.000000, 0.100000)" id="Amazon">
                            <text>
                                <tspan x="0" y="18.1">Amazon</tspan>
                            </text>
                        </g>
                    </g>
                </g>
                <g id="d791999d-da0b-4136-97f4-38274797c165" transform="translate(45.000000, 311.000000)" fill="#F5B720" font-size="31.25">
                    <g id="Group">
                        <g transform="translate(0.000000, 0.500000)" id="API-Gateway" stroke="#FFFFFF" stroke-width="4">
                            <text>
                                <tspan x="0" y="30.5">API Gateway</tspan>
                            </text>
                        </g>
                        <g transform="translate(0.000000, 0.500000)" id="API-Gateway">
                            <text>
                                <tspan x="0" y="30.5">API Gateway</tspan>
                            </text>
                        </g>
                    </g>
                </g>
                <g id="d67cac59-1f17-4202-8f43-03f639a29970" transform="translate(45.000000, 568.000000)" fill="#F5B720" font-size="18.75">
                    <g id="Group">
                        <g transform="translate(0.000000, 0.100000)" id="AWS" stroke="#FFFFFF" stroke-width="4">
                            <text>
                                <tspan x="0" y="18.1">AWS</tspan>
                            </text>
                        </g>
                        <g transform="translate(0.000000, 0.100000)" id="AWS">
                            <text>
                                <tspan x="0" y="18.1">AWS</tspan>
                            </text>
                        </g>
                    </g>
                </g>
                <g id="ae5a6e5f-9e7c-49fa-a462-ddaf7cd91631" transform="translate(45.000000, 581.000000)" fill="#F5B720" font-size="31.25">
                    <g id="Group">
                        <g transform="translate(0.000000, 0.500000)" id="Lambda" stroke="#FFFFFF" stroke-width="4">
                            <text>
                                <tspan x="0" y="30.5">Lambda</tspan>
                            </text>
                        </g>
                        <g transform="translate(0.000000, 0.500000)" id="Lambda">
                            <text>
                                <tspan x="0" y="30.5">Lambda</tspan>
                            </text>
                        </g>
                    </g>
                </g>
                <g id="2e92ca6a-6141-4734-9281-be3f51190d58" transform="translate(45.000000, 830.000000)" fill="#F5B720" font-size="18.75">
                    <g id="Group">
                        <g transform="translate(0.000000, 0.100000)" id="Amazon" stroke="#FFFFFF" stroke-width="4">
                            <text>
                                <tspan x="0" y="18.1">Amazon</tspan>
                            </text>
                        </g>
                        <g transform="translate(0.000000, 0.100000)" id="Amazon">
                            <text>
                                <tspan x="0" y="18.1">Amazon</tspan>
                            </text>
                        </g>
                    </g>
                </g>
                <g id="5cb9a962-3aa3-478b-af72-e241c13c6576" transform="translate(45.000000, 847.000000)" fill="#F5B720" font-size="31.25">
                    <g id="Group">
                        <g transform="translate(0.000000, 0.500000)" id="DynamoDB" stroke="#FFFFFF" stroke-width="4">
                            <text>
                                <tspan x="0" y="30.5">DynamoDB</tspan>
                            </text>
                        </g>
                        <g transform="translate(0.000000, 0.500000)" id="DynamoDB">
                            <text>
                                <tspan x="0" y="30.5">DynamoDB</tspan>
                            </text>
                        </g>
                    </g>
                </g>
                <g id="7595de9c-f430-486a-ab99-af7dcc7fa22d" transform="translate(0.000000, 152.000000)" fill="#000000" font-size="18.75">
                    <g id="Group">
                        <g transform="translate(0.000000, 0.100000)" id="App-sends-HTTP-requests" stroke="#FFFFFF" stroke-width="4">
                            <text>
                                <tspan x="0" y="18.1">App sends HTTP requests</tspan>
                            </text>
                        </g>
                        <g transform="translate(0.000000, 0.100000)" id="App-sends-HTTP-requests">
                            <text>
                                <tspan x="0" y="18.1">App sends HTTP requests</tspan>
                            </text>
                        </g>
                    </g>
                </g>
                <g id="10c849af-a7fd-473b-9821-64bfc8a4f2f7" transform="translate(0.000000, 407.000000)" fill="#000000" font-size="18.75">
                    <g id="Group">
                        <g>
                            <text id="Routes-request">
                                <tspan x="0" y="18.225">Routes request</tspan>
                            </text>
                            <text id="to-Lambda-functions">
                                <tspan x="0" y="39.225">to Lambda functions</tspan>
                            </text>
                        </g>
                    </g>
                </g>
                <g id="670377c1-9190-4cb2-a506-3f40d93e9cd9" transform="translate(0.000000, 693.000000)" fill="#000000" font-size="20">
                    <g id="Group">
                        <g transform="translate(0.000000, 0.240000)" id="Read-and-writes-data" stroke="#FFFFFF" stroke-width="4">
                            <text>
                                <tspan x="0" y="19.24">Read and writes data</tspan>
                            </text>
                        </g>
                        <g transform="translate(0.000000, 0.240000)" id="Read-and-writes-data">
                            <text>
                                <tspan x="0" y="19.24">Read and writes data</tspan>
                            </text>
                        </g>
                    </g>
                </g>
                <g id="608b06ad-21b4-419f-ae74-d92bdff73eb5" transform="translate(405.000000, 24.000000)" fill="#F5B720" font-size="18.75">
                    <g id="Group">
                        <g transform="translate(0.000000, 0.100000)" id="Amazon" stroke="#FFFFFF" stroke-width="4">
                            <text>
                                <tspan x="0" y="18.1">Amazon</tspan>
                            </text>
                        </g>
                        <g transform="translate(0.000000, 0.100000)" id="Amazon">
                            <text>
                                <tspan x="0" y="18.1">Amazon</tspan>
                            </text>
                        </g>
                    </g>
                </g>
                <g id="caa5ce85-f71a-4981-a101-79c34afd02b0" transform="translate(405.000000, 41.000000)" fill="#F5B720" font-size="31.25">
                    <g id="Group">
                        <g transform="translate(0.000000, 0.500000)" id="Cognito" stroke="#FFFFFF" stroke-width="4">
                            <text>
                                <tspan x="0" y="30.5">Cognito</tspan>
                            </text>
                        </g>
                        <g transform="translate(0.000000, 0.500000)" id="Cognito">
                            <text>
                                <tspan x="0" y="30.5">Cognito</tspan>
                            </text>
                        </g>
                    </g>
                </g>
                <g id="cf1acdbe-705a-432d-b787-93744e4e620d" transform="translate(68.000000, 0.000000)" fill="#000000" font-size="18.75">
                    <g id="Group">
                        <g transform="translate(0.000000, 0.100000)" id="Authenticates" stroke="#FFFFFF" stroke-width="4">
                            <text>
                                <tspan x="0" y="18.1">Authenticates</tspan>
                            </text>
                        </g>
                        <g transform="translate(0.000000, 0.100000)" id="Authenticates">
                            <text>
                                <tspan x="0" y="18.1">Authenticates</tspan>
                            </text>
                        </g>
                    </g>
                </g>
            </g>
        </g>
    </g>
</svg>