<?xml version="1.0" encoding="UTF-8"?>
<svg width="340px" height="542px" viewBox="0 0 340 542" version="1.1" xmlns="http://www.w3.org/2000/svg" xmlns:xlink="http://www.w3.org/1999/xlink">
    <!-- Generator: Sketch 52.6 (67491) - http://www.bohemiancoding.com/sketch -->
    <title>aws-diagram</title>
    <desc>Created with Sketch.</desc>
    <defs>
        <linearGradient x1="-20.7066667%" y1="120.706667%" x2="120.72%" y2="-20.72%" id="linearGradient-1">
            <stop stop-color="#BD0816" offset="0%"></stop>
            <stop stop-color="#FF5252" offset="100%"></stop>
        </linearGradient>
    </defs>
    <g id="Page-1" stroke="none" stroke-width="1" fill="none" fill-rule="evenodd">
        <g id="aws-diagram">
            <g id="Group" transform="translate(21.000000, 21.000000)" fill="#000000">
                <g transform="translate(0.000000, 33.600000)" id="Path">
                    <path d="M6.6,0 L6.6,100.2" stroke="#FF0000" stroke-width="4.8" opacity="0"></path>
                    <path d="M6.6,0 L6.6,100.2" stroke="#000000" stroke-width="1.2" stroke-linecap="round"></path>
                    <polygon stroke="#000000" stroke-width="0.6" stroke-linejoin="round" points="6.6 108 13.2 93.6 6.6 97.2 0 93.6"></polygon>
                </g>
                <g transform="translate(0.000000, 357.600000)" id="Path">
                    <path d="M6.6,108 L6.6,8.4" stroke="#FF0000" stroke-width="4.8" opacity="0"></path>
                    <path d="M6.6,108 L6.6,8.4" stroke="#000000" stroke-width="1.2" stroke-linecap="round"></path>
                    <polygon stroke="#000000" stroke-width="0.6" stroke-linejoin="round" points="6.6 0 0 14.4 6.6 10.8 13.2 14.4"></polygon>
                </g>
                <g transform="translate(0.000000, 357.600000)" id="Path">
                    <path d="M6.6,0 L6.6,100.2" stroke="#FF0000" stroke-width="4.8" opacity="0"></path>
                    <path d="M6.6,0 L6.6,100.2" stroke="#000000" stroke-width="1.2" stroke-linecap="round"></path>
                    <polygon stroke="#000000" stroke-width="0.6" stroke-linejoin="round" points="6.6 108 13.2 93.6 6.6 97.2 0 93.6"></polygon>
                </g>
                <g transform="translate(0.000000, 33.600000)" id="Path">
                    <path d="M6.6,108 L6.6,7.8" stroke="#FF0000" stroke-width="4.8" opacity="0"></path>
                    <path d="M6.6,108 L6.6,7.8" stroke="#000000" stroke-width="1.2" stroke-linecap="round"></path>
                    <polygon stroke="#000000" stroke-width="0.6" stroke-linejoin="round" points="6.6 0 0 14.4 6.6 10.8 13.2 14.4"></polygon>
                </g>
                <g transform="translate(33.600000, 0.000000)" id="Path">
                    <path d="M0.4,6.5 L155.4,6.5" stroke="#FF0000" stroke-width="4.8" opacity="0"></path>
                    <path d="M0.4,6.5 L155.4,6.5" stroke="#000000" stroke-width="1.2" stroke-linecap="round"></path>
                    <polygon stroke="#000000" stroke-width="0.6" stroke-linejoin="round" points="161.4 6.5 149.4 0 152.4 6.5 149.4 13"></polygon>
                </g>
                <g transform="translate(33.600000, 0.000000)" id="Path">
                    <path d="M123.4,6.5 L5.4,6.5" stroke="#FF0000" stroke-width="4.8" opacity="0"></path>
                    <path d="M123.4,6.5 L5.4,6.5" stroke="#000000" stroke-width="1.2" stroke-linecap="round"></path>
                    <polygon stroke="#000000" stroke-width="0.6" stroke-linejoin="round" points="0.4 6.5 9.4 13 7.15 6.5 9.4 0"></polygon>
                </g>
                <g transform="translate(0.000000, 195.600000)" id="Path">
                    <path d="M6.6,0 L6.6,100.2" stroke="#FF0000" stroke-width="4.8" opacity="0"></path>
                    <path d="M6.6,0 L6.6,100.2" stroke="#000000" stroke-width="1.2" stroke-linecap="round"></path>
                    <polygon stroke="#000000" stroke-width="0.6" stroke-linejoin="round" points="6.6 108 13.2 93.6 6.6 97.2 0 93.6"></polygon>
                </g>
                <g transform="translate(0.000000, 195.600000)" id="Path">
                    <path d="M6.6,108 L6.6,8.4" stroke="#FF0000" stroke-width="4.8" opacity="0"></path>
                    <path d="M6.6,108 L6.6,8.4" stroke="#000000" stroke-width="1.2" stroke-linecap="round"></path>
                    <polygon stroke="#000000" stroke-width="0.6" stroke-linejoin="round" points="6.6 0 0 14.4 6.6 10.8 13.2 14.4"></polygon>
                </g>
            </g>
            <g id="Group">
                <g id="7b1b57e6-0308-462d-ab81-a2fbd096c604" fill="#232F3E">
                    <g id="svg13">
                        <g id="Working" transform="translate(0.025740, 0.037740)">
                            <circle id="path819" opacity="0.05" cx="27.6090282" cy="14.5271974" r="12.3936158"></circle>
                            <path d="M53.42571,54.5057136 L1.72341,54.5057136 C1.08886796,54.5057136 0.57447,53.9913156 0.57447,53.3567736 L0.57447,49.9099536 C0.567342509,37.8576252 8.80891587,27.3657605 20.5200684,24.5183796 C20.7993923,24.4544574 21.0923106,24.4910722 21.3473052,24.6217842 C25.2212809,26.7367691 29.9048603,26.7367691 33.778836,24.6217842 C34.0286843,24.4878618 34.3192222,24.4510331 34.5945834,24.5183796 C46.3235997,27.3532379 54.5832338,37.8547048 54.57465,49.921443 L54.57465,53.368263 C54.5683492,53.9983136 54.0557921,54.5057451 53.42571,54.5057136 Z" id="path8-6" opacity="0.05"></path>
                            <path d="M53.42571,54.5057136 L1.72341,54.5057136 C1.08886796,54.5057136 0.57447,53.9913156 0.57447,53.3567736 L0.57447,49.9099536 C0.567342509,37.8576252 8.80891587,27.3657605 20.5200684,24.5183796 C20.7993923,24.4544574 21.0923106,24.4910722 21.3473052,24.6217842 C25.2212809,26.7367691 29.9048603,26.7367691 33.778836,24.6217842 C34.0286843,24.4878618 34.3192222,24.4510331 34.5945834,24.5183796 C46.3235997,27.3532379 54.5832338,37.8547048 54.57465,49.921443 L54.57465,53.368263 C54.5683492,53.9983136 54.0557921,54.5057451 53.42571,54.5057136 Z M2.87234806,52.2078336 L52.276771,52.2078336 L52.27677,49.9099536 C52.2799352,39.071454 44.9581264,29.6003399 34.4682,26.8737066 C32.3277536,27.9456129 29.968389,28.5079281 27.57456,28.5166908 C25.1792254,28.5206853 22.8169561,27.9576778 20.68092,26.8737066 C10.18921,29.6049839 2.86799861,39.0800485 2.87235,49.921443 L2.87234806,52.2078336 Z" id="path8" fill-rule="nonzero"></path>
                            <path d="M27.57456,28.436265 C25.2055264,28.4448403 22.8730928,27.8518487 20.795814,26.712855 C14.8759428,23.395345 12.2061218,16.2961748 14.472873,9.89988003 C16.7396242,3.50358527 23.2839335,-0.330234914 29.9717701,0.82023816 C36.6596068,1.97071123 41.5466115,7.77099975 41.5456704,14.5570698 C41.5496488,19.6373465 38.7595032,24.3081915 34.2843696,26.712855 C32.2239794,27.8315275 29.9190161,28.4235557 27.57456,28.436265 Z M27.57456,2.9412864 C22.2337282,2.83710879 17.514496,6.39939874 16.1510051,11.5643023 C14.7875142,16.7292059 17.1335295,22.1566616 21.82986,24.70221 C25.3593526,26.6165301 29.6174264,26.6165301 33.146919,24.70221 C37.8126762,22.1709407 40.1603131,16.791791 38.8435288,11.649545 C37.5267446,6.50729899 32.8826761,2.91852792 27.57456,2.9412864 Z" id="path10" fill-rule="nonzero"></path>
                        </g>
                    </g>
                </g>
                <g id="ab6891d8-743b-424d-ae23-05722105d8bc" transform="translate(0.600000, 162.600000)">
                    <g id="svg25">
                        <g id="Reference">
                            <polygon id="Purple_Light_BG" fill="#693CC5" points="0 0 54 0 54 54 0 54"></polygon>
                            <g id="Product_Icon" transform="translate(8.640000, 9.360000)" fill="#FFFFFF">
                                <path d="M26.2872,34.92 C26.134685,34.9205432 25.985937,34.8726413 25.8624,34.7832 C25.6736192,34.6487934 25.5610716,34.4317373 25.56,34.2 L25.56,1.08 C25.5610437,0.82980976 25.6918928,0.59809788 25.9056,0.468 C26.121879,0.328062856 26.3964409,0.314334757 26.6256,0.432 L35.9856,5.004 C36.2305191,5.12399435 36.3866144,5.37207443 36.3888,5.6448 L36.3888,31.0896 C36.4046847,31.41422 36.2011237,31.7092358 35.892,31.8096 L26.532,34.92 C26.4508206,34.9317172 26.3683794,34.9317172 26.2872,34.92 Z M27.0072,2.2392 L27.0072,33.1992 L34.9272,30.5712 L34.9272,6.0912 L27.0072,2.2392 Z" id="path9" fill-rule="nonzero"></path>
                                <path d="M10.44,34.92 C10.3635503,34.9303731 10.2860497,34.9303731 10.2096,34.92 L0.8496,31.8096 C0.543332924,31.7066444 0.343158143,31.4122697 0.36,31.0896 L0.36,5.6448 C0.362185558,5.37207443 0.518280894,5.12399435 0.7632,5.004 L10.1232,0.432 C10.3523591,0.314334757 10.626921,0.328062856 10.8432,0.468 C11.0541495,0.599843127 11.1820978,0.831238942 11.1816,1.08 L11.1816,34.2 C11.1805284,34.4317373 11.0679808,34.6487934 10.8792,34.7832 C10.7532625,34.8786804 10.5978818,34.9270777 10.44,34.92 Z M1.8,30.6 L9.72,33.228 L9.72,2.268 L1.8,6.1344 L1.8,30.6 Z" id="path11" fill-rule="nonzero"></path>
                                <path d="M25.56,10.44 L23.4,10.44 L23.4,9 L25.56,9 L25.56,10.44 Z M21.24,10.44 L19.08,10.44 L19.08,9 L21.24,9 L21.24,10.44 Z M16.92,10.44 L14.76,10.44 L14.76,9 L16.92,9 L16.92,10.44 Z M12.6,10.44 L10.44,10.44 L10.44,9 L12.6,9 L12.6,10.44 Z" id="path13" fill-rule="nonzero"></path>
                                <path d="M25.56,26.28 L23.4,26.28 L23.4,24.84 L25.56,24.84 L25.56,26.28 Z M21.24,26.28 L19.08,26.28 L19.08,24.84 L21.24,24.84 L21.24,26.28 Z M16.92,26.28 L14.76,26.28 L14.76,24.84 L16.92,24.84 L16.92,26.28 Z M12.6,26.28 L10.44,26.28 L10.44,24.84 L12.6,24.84 L12.6,26.28 Z" id="path15" fill-rule="nonzero"></path>
                                <path d="M15.1992,20.1168 L12.492,17.8056 C12.3320402,17.6688085 12.2399446,17.4688734 12.2399446,17.2584 C12.2399446,17.0479266 12.3320402,16.8479915 12.492,16.7112 L15.192,14.4 L16.128,15.4944 L14.0688,17.28 L16.128,19.044 L15.1992,20.1168 Z" id="path17"></path>
                                <path d="M21.528,20.1168 L20.592,19.0224 L22.6512,17.28 L20.5848,15.5232 L21.5208,14.4 L24.228,16.704 C24.3879598,16.8407915 24.4800554,17.0407266 24.4800554,17.2512 C24.4800554,17.4616734 24.3879598,17.6616085 24.228,17.7984 L21.528,20.1168 Z" id="path19"></path>
                                <polygon id="rect21" transform="translate(18.355703, 17.633268) rotate(-71.320000) translate(-18.355703, -17.633268) " points="13.8881025 16.9132679 22.8233025 16.9132679 22.8233025 18.3532679 13.8881025 18.3532679"></polygon>
                            </g>
                        </g>
                    </g>
                </g>
                <g id="71cc3795-de14-49b3-909e-30d348807926" transform="translate(0.600000, 324.600000)">
                    <g id="svg15">
                        <g id="Reference">
                            <polygon id="Orange_Light_BG" fill="#D86613" points="0 0 54 0 54 54 0 54"></polygon>
                            <g id="Product_Icon" transform="translate(9.360000, 8.640000)" fill="#FFFFFF" fill-rule="nonzero">
                                <path d="M34.2,36.36 L25.3296,36.36 C25.0526452,36.359216 24.8006899,36.1996443 24.6816,35.9496 L12.1392,9.72 L6.8328,9.72 C6.43515498,9.72 6.1128,9.39764502 6.1128,9 L6.1128,1.08 C6.1128,0.68235498 6.43515498,0.36 6.8328,0.36 L17.9208,0.36 C18.1977548,0.360784006 18.4497101,0.520355676 18.5688,0.7704 L31.0536,27 L34.2,27 C34.597645,27 34.92,27.322355 34.92,27.72 L34.92,35.64 C34.92,36.037645 34.597645,36.36 34.2,36.36 Z M25.7832,34.92 L33.48,34.92 L33.48,28.44 L30.6,28.44 C30.3230452,28.439216 30.0710899,28.2796443 29.952,28.0296 L17.4672,1.8 L7.56,1.8 L7.56,8.28 L12.6,8.28 C12.8769548,8.28078401 13.1289101,8.44035568 13.248,8.6904 L25.7832,34.92 Z" id="path9"></path>
                                <path d="M10.4256,36.36 L1.0656,36.36 C0.816838942,36.3604978 0.585443127,36.2325495 0.4536,36.0216 C0.313662856,35.805321 0.299934757,35.5307591 0.4176,35.3016 L10.2096,14.8464 C10.3286899,14.5963557 10.5806452,14.436784 10.8576,14.436 C11.1329245,14.435449 11.3844575,14.5919585 11.5056,14.8392 L16.1928,24.48 C16.2883868,24.6778603 16.2883868,24.9085397 16.1928,25.1064 L11.0808,35.9064 C10.9736101,36.1756967 10.7153926,36.3544627 10.4256,36.36 Z M2.2176,34.92 L9.972,34.92 L14.7456,24.84 L10.8648,16.812 L2.2176,34.92 Z" id="path11"></path>
                            </g>
                        </g>
                    </g>
                </g>
                <g id="eec1bbd4-88c0-4c14-ad26-47e051fdb090" transform="translate(0.600000, 486.600000)">
                    <g id="svg21">
                        <g id="Reference">
                            <polygon id="Blue_Light_BG" fill="#3B48CC" points="0 0 54 0 54 54 0 54"></polygon>
                            <g id="Product_Icon" transform="translate(11.520000, 8.640000)" fill="#FFFFFF">
                                <path d="M24.66,20.5056 L19.9008,25.2576 C20.7569924,25.0187393 21.5831353,24.6829677 22.3632,24.2568 C22.8244137,24.5428899 23.1374413,25.0163771 23.22,25.5528 C23.22,26.8704 20.4264,28.3032 16.2792,28.8864 C14.9999125,29.0594329 13.7109038,29.1508179 12.42,29.16 L11.7,29.16 C5.8824,29.0232 1.62,27.1872 1.62,25.56 C1.70255866,25.0235771 2.01558629,24.5500899 2.4768,24.264 C4.7376,25.524 8.4024,26.2728 12.42,26.2728 L12.4992,26.2728 L12.9024,24.8328 L12.42,24.8328 C8.46,24.8328 4.788,24.048 2.8368,22.8096 C2.0592,22.2984 1.6272,21.744 1.62,21.2616 L1.62,17.928 C3.8232,19.6128 8.2152,20.4912 12.42,20.4912 C12.9888,20.4912 13.5576,20.4912 14.112,20.4408 L14.5224,19.0008 C13.8024,19.0512 13.1328,19.0728 12.42,19.0728 C6.2424,19.0728 1.62,17.1792 1.62,15.4728 C1.70255866,14.9363771 2.01558629,14.4628899 2.4768,14.1768 C4.464,15.2928 7.5168,15.9912 10.98,16.1496 L11.016,14.7096 C7.6104,14.544 4.536,13.8096 2.8368,12.7224 C2.0664,12.2256 1.6344,11.664 1.62,11.1744 L1.62,7.848 C3.8232,9.5328 8.2152,10.4112 12.42,10.4112 L12.5784,10.4112 L13.3416,8.9712 L12.42,8.9712 C6.2424,8.9712 1.62,7.0776 1.62,5.3712 C1.62,3.6648 6.2424,1.7712 12.42,1.7712 C14.5006343,1.76238563 16.5747616,2.00412541 18.5976,2.4912 L22.5504,2.4912 C20.3904,1.1736 16.6608,0.3312 12.42,0.3312 C6.4872,0.3312 0.18,2.088 0.18,5.3712 L0.18,11.1672 C0.223795933,11.9976104 0.619188459,12.770066 1.2672,13.2912 C0.61077163,13.8211344 0.214580605,14.6082689 0.18,15.4512 L0.18,21.2112 C0.213648043,22.0543726 0.610022122,22.8418708 1.2672,23.3712 C0.61077163,23.9011344 0.214580605,24.6882689 0.18,25.5312 L0.18,31.2912 C0.175758905,31.3415108 0.175758905,31.3920892 0.18,31.4424 C0.3744,34.6032 6.5664,36.3024 12.42,36.3024 C18.2736,36.3024 24.4656,34.6032 24.66,31.428 C24.6670909,31.3778494 24.6670909,31.3269506 24.66,31.2768 L24.66,25.5168 C24.6320659,24.6721599 24.2345605,23.8824141 23.5728,23.3568 C24.2299779,22.8274708 24.626352,22.0399726 24.66,21.1968 L24.66,20.5056 Z M23.22,31.3056 C23.22,33.0048 18.5976,34.9056 12.42,34.9056 C6.2424,34.9056 1.62,33.0264 1.62,31.3056 L1.62,27.9936 C3.8232,29.664 8.2152,30.5424 12.42,30.5424 C16.6248,30.5424 21.0168,29.664 23.22,27.9936 L23.22,31.3056 Z" id="path9" fill-rule="nonzero"></path>
                                <circle id="circle11" cx="3.78" cy="11.1744" r="1"></circle>
                                <circle id="circle13" cx="3.78" cy="21.2544" r="1"></circle>
                                <circle id="circle15" cx="3.78" cy="31.3344" r="1"></circle>
                                <path d="M14.22,28.4256 C14.0932179,28.4242833 13.9690316,28.3895111 13.86,28.3248 C13.5713908,28.1586144 13.4344179,27.8161822 13.5288,27.4968 L17.5752,14.0256 L13.5,14.0256 C13.244085,14.0288699 13.0056702,13.896041 12.8737744,13.6767086 C12.7418786,13.4573763 12.7363299,13.1845131 12.8592,12.96 L17.1792,4.32 C17.3012042,4.07787865 17.5488781,3.92482174 17.82,3.924 L27.18,3.924 C27.4167955,3.9122246 27.6442105,4.01777872 27.7880695,4.20623397 C27.9319285,4.39468922 27.9737899,4.64188726 27.9,4.8672 L26.0568,10.404 L30.096,10.404 C30.3835844,10.4050935 30.6429345,10.5772166 30.7556533,10.8417927 C30.8683721,11.1063687 30.8128368,11.4126442 30.6144,11.6208 L14.7744,28.1808 C14.6346144,28.3399891 14.4318152,28.4295368 14.22,28.4256 Z M14.6664,12.5856 L18.54,12.5856 C18.7666253,12.5856 18.9800248,12.6922998 19.116,12.8736 C19.2519752,13.0549002 19.2946551,13.2896398 19.2312,13.5072 L15.768,25.0272 L28.3752,11.8512 L25.02,11.8512 C24.7814495,11.8638752 24.5521446,11.7574067 24.4078909,11.5669918 C24.2636371,11.3765768 24.2232197,11.1270118 24.3,10.9008 L26.1432,5.3712 L18.2232,5.3712 L14.6664,12.5856 Z" id="path17" fill-rule="nonzero"></path>
                            </g>
                        </g>
                    </g>
                </g>
            </g>
            <g id="e5852346-c6dc-4353-b1b3-9228c55fa53d" transform="translate(216.000000, 0.000000)">
                <g id="Group">
                    <g transform="translate(0.069531, 0.069531)">
                        <circle id="Oval" fill="#000000" cx="27.5304689" cy="27.5304689" r="27.1682259"></circle>
                        <g transform="translate(0.362243, 0.362243)" id="Reference">
                            <g>
                                <polygon id="Red_Gradient" fill="url(#linearGradient-1)" points="0 0 54.3364519 0 54.3364519 54.3364519 0 54.3364519"></polygon>
                                <g id="Icon_Test" transform="translate(8.693832, 10.867290)" fill="#FFFFFF">
                                    <path d="M31.1528991,0 L3.23120767,0 C1.67060252,0.0819703188 0.469454045,1.40938507 0.543364519,2.9703927 L0.543364519,20.9376461 C0.469454045,22.4986537 1.67060252,23.8260685 3.23120767,23.9080388 L18.6555151,23.9080388 L18.6555151,22.4590668 L3.23120767,22.4590668 C2.48548443,22.3511825 1.9468988,21.6897615 1.99233657,20.9376461 L1.99233657,8.6938323 L15.033085,8.6938323 L15.033085,19.5611227 C15.033085,19.9612453 15.3574485,20.2856087 15.757571,20.2856087 L21.5534592,20.2856087 L21.5534592,18.8366366 L16.8080758,18.8366366 L16.8080758,18.6192908 C16.8041565,16.1357519 18.4343307,13.9454816 20.8144835,13.2363597 C21.9461674,13.7544291 23.2472708,13.7544291 24.3789547,13.2363597 C25.7151234,13.6396415 26.8554106,14.5219452 27.581183,15.7141019 L28.8128092,14.9896159 C28.066888,13.7718902 26.9710992,12.807394 25.6685399,12.2220792 C26.2629284,11.5164572 26.5888163,10.6234729 26.5886371,9.70086787 C26.5886371,7.50019366 24.8046382,5.71619473 22.603964,5.71619473 C20.4032898,5.71619473 18.6192908,7.50019366 18.6192908,9.70086787 C18.6382218,10.608479 18.9710428,11.4814941 19.5611227,12.1713652 C18.3072459,12.7274338 17.2441868,13.639347 16.5037916,14.7940046 L16.5037916,5.07140217 L28.8200541,5.07140217 L28.8200541,15.2142065 L30.2690261,15.2142065 L30.2690261,8.6938323 L32.4424842,8.6938323 L32.4424842,15.9386925 L33.8914562,15.9386925 L33.8914562,2.9703927 C33.9267667,2.21214808 33.6570678,1.47132321 33.1425475,0.913245624 C32.6280272,0.355168042 31.9115101,0.0262877789 31.1528991,0 Z M22.603964,7.15067706 C23.2726341,7.14682309 23.9154471,7.40876085 24.3909857,7.87886473 C24.8665243,8.34896861 25.1358332,8.98872843 25.1396651,9.65739871 C25.1334655,10.5673304 24.6304219,11.4011043 23.8283454,11.8308568 C23.0618857,12.2443412 22.1387974,12.2443412 21.3723377,11.8308568 C20.5741839,11.3980104 20.0745843,10.5653445 20.0682629,9.65739871 C20.0720948,8.98872843 20.3414036,8.34896861 20.8169423,7.87886473 C21.2924809,7.40876085 21.9352938,7.14682309 22.603964,7.15067706 Z M30.2472915,7.24486025 L30.2472915,4.34691615 C30.2472915,3.94679357 29.9229281,3.62243012 29.5228055,3.62243012 L15.757571,3.62243012 C15.3574485,3.62243012 15.033085,3.94679357 15.033085,4.34691615 L15.033085,7.24486025 L1.99233657,7.24486025 L1.99233657,2.9703927 C1.9468988,2.2182773 2.48548443,1.55685634 3.23120767,1.44897205 L31.1528991,1.44897205 C31.9044269,1.55002403 32.4509378,2.21341879 32.4062599,2.9703927 L32.4062599,7.24486025 L30.2472915,7.24486025 Z" id="Shape" fill-rule="nonzero"></path>
                                    <path d="M3.45579834,12.2800381 L11.4106549,12.2800381 L11.4106549,13.7290102 L3.45579834,13.7290102 L3.45579834,12.2800381 Z M3.45579834,15.9024682 L8.51271079,15.9024682 L8.51271079,17.3514403 L3.45579834,17.3514403 L3.45579834,15.9024682 Z M9.97617256,15.9024682 L12.1351409,15.9024682 L12.1351409,17.3514403 L9.97617256,17.3514403 L9.97617256,15.9024682 Z M29.080869,32.6380954 C26.3498493,32.6511737 23.838369,31.1437591 22.5654676,28.7274888 C21.2925662,26.3112186 21.4696767,23.3874429 23.0249362,21.1424912 C24.5801956,18.8975396 27.2552703,17.7043055 29.964742,18.0469469 C32.6419853,18.3776173 34.9213996,20.151737 35.8992029,22.6658721 C36.8770062,25.1800073 36.3952394,28.028012 34.6449217,30.0806597 C33.9665201,30.861252 33.1356615,31.4948741 32.2034038,31.9425888 C31.2259038,32.3998624 30.1600376,32.6372711 29.080869,32.6380954 Z M29.080869,19.43796 C28.1503291,19.4375487 27.2333698,19.6611973 26.4075156,20.0899975 C23.5707201,21.5621434 22.4309173,25.0317851 23.8420655,27.8994118 C25.2532138,30.7670386 28.697689,31.9807744 31.5948355,30.6312691 C32.3471508,30.2744844 33.0160658,29.763542 33.5581927,29.1315831 C34.9650054,27.4854103 35.3523432,25.1988763 34.5661823,23.1812148 C33.7800214,21.1635533 31.9478056,19.7418454 29.7981102,19.4814292 C29.5553239,19.4519278 29.3109508,19.4374106 29.0663793,19.43796 L29.080869,19.43796 Z" id="Shape" fill-rule="nonzero"></path>
                                    <path d="M27.9289363,28.3998522 C27.7363657,28.4009655 27.5512753,28.3253652 27.4145512,28.1897512 L25.0744613,25.8496614 L26.0814969,24.8281361 L27.9072017,26.6538408 L32.036772,22.5170256 L33.0655422,23.5457958 L28.4143419,28.1897512 C28.2848004,28.3184561 28.1114342,28.3934951 27.9289363,28.3998522 Z" id="Path"></path>
                                </g>
                            </g>
                        </g>
                    </g>
                </g>
            </g>
            <g id="Group" transform="translate(41.400000, 9.600000)" font-family="Helvetica" font-weight="normal">
                <g id="5a4038ad-9ffb-43fe-9ec9-8b53d0bea1ca" transform="translate(18.000000, 175.800000)" fill="#F5B720" font-size="11.25">
                    <g id="Group">
                        <g transform="translate(0.000000, 0.060000)" id="Amazon" stroke="#FFFFFF" stroke-width="2.4">
                            <text>
                                <tspan x="0" y="11.06">Amazon</tspan>
                            </text>
                        </g>
                        <g transform="translate(0.000000, 0.060000)" id="Amazon">
                            <text>
                                <tspan x="0" y="11.06">Amazon</tspan>
                            </text>
                        </g>
                    </g>
                </g>
                <g id="d791999d-da0b-4136-97f4-38274797c165" transform="translate(18.000000, 186.600000)" fill="#F5B720" font-size="18.75">
                    <g id="Group">
                        <g transform="translate(0.000000, 0.300000)" id="API-Gateway" stroke="#FFFFFF" stroke-width="2.4">
                            <text>
                                <tspan x="0" y="18.3">API Gateway</tspan>
                            </text>
                        </g>
                        <g transform="translate(0.000000, 0.300000)" id="API-Gateway">
                            <text>
                                <tspan x="0" y="18.3">API Gateway</tspan>
                            </text>
                        </g>
                    </g>
                </g>
                <g id="d67cac59-1f17-4202-8f43-03f639a29970" transform="translate(18.000000, 340.800000)" fill="#F5B720" font-size="11.25">
                    <g id="Group">
                        <g transform="translate(0.000000, 0.060000)" id="AWS" stroke="#FFFFFF" stroke-width="2.4">
                            <text>
                                <tspan x="0" y="11.06">AWS</tspan>
                            </text>
                        </g>
                        <g transform="translate(0.000000, 0.060000)" id="AWS">
                            <text>
                                <tspan x="0" y="11.06">AWS</tspan>
                            </text>
                        </g>
                    </g>
                </g>
                <g id="ae5a6e5f-9e7c-49fa-a462-ddaf7cd91631" transform="translate(18.000000, 348.600000)" fill="#F5B720" font-size="18.75">
                    <g id="Group">
                        <g transform="translate(0.000000, 0.300000)" id="Lambda" stroke="#FFFFFF" stroke-width="2.4">
                            <text>
                                <tspan x="0" y="18.3">Lambda</tspan>
                            </text>
                        </g>
                        <g transform="translate(0.000000, 0.300000)" id="Lambda">
                            <text>
                                <tspan x="0" y="18.3">Lambda</tspan>
                            </text>
                        </g>
                    </g>
                </g>
                <g id="2e92ca6a-6141-4734-9281-be3f51190d58" transform="translate(18.000000, 498.000000)" fill="#F5B720" font-size="11.25">
                    <g id="Group">
                        <g transform="translate(0.000000, 0.060000)" id="Amazon" stroke="#FFFFFF" stroke-width="2.4">
                            <text>
                                <tspan x="0" y="11.06">Amazon</tspan>
                            </text>
                        </g>
                        <g transform="translate(0.000000, 0.060000)" id="Amazon">
                            <text>
                                <tspan x="0" y="11.06">Amazon</tspan>
                            </text>
                        </g>
                    </g>
                </g>
                <g id="5cb9a962-3aa3-478b-af72-e241c13c6576" transform="translate(18.000000, 508.200000)" fill="#F5B720" font-size="18.75">
                    <g id="Group">
                        <g transform="translate(0.000000, 0.300000)" id="DynamoDB" stroke="#FFFFFF" stroke-width="2.4">
                            <text>
                                <tspan x="0" y="18.3">DynamoDB</tspan>
                            </text>
                        </g>
                        <g transform="translate(0.000000, 0.300000)" id="DynamoDB">
                            <text>
                                <tspan x="0" y="18.3">DynamoDB</tspan>
                            </text>
                        </g>
                    </g>
                </g>
                <g id="7595de9c-f430-486a-ab99-af7dcc7fa22d" transform="translate(0.000000, 91.200000)" fill="#000000" font-size="11.25">
                    <g id="Group">
                        <g transform="translate(0.000000, 0.060000)" id="App-sends-HTTP-requests" stroke="#FFFFFF" stroke-width="2.4">
                            <text>
                                <tspan x="0" y="11.06">App sends HTTP requests</tspan>
                            </text>
                        </g>
                        <g transform="translate(0.000000, 0.060000)" id="App-sends-HTTP-requests">
                            <text>
                                <tspan x="0" y="11.06">App sends HTTP requests</tspan>
                            </text>
                        </g>
                    </g>
                </g>
                <g id="10c849af-a7fd-473b-9821-64bfc8a4f2f7" transform="translate(0.000000, 244.200000)" fill="#000000" font-size="11.25">
                    <g id="Group">
                        <g>
                            <text id="Routes-request">
                                <tspan x="0" y="11.135">Routes request</tspan>
                            </text>
                            <text id="to-Lambda-functions">
                                <tspan x="0" y="23.735">to Lambda functions</tspan>
                            </text>
                        </g>
                    </g>
                </g>
                <g id="670377c1-9190-4cb2-a506-3f40d93e9cd9" transform="translate(0.000000, 415.800000)" fill="#000000" font-size="12">
                    <g id="Group">
                        <g transform="translate(0.000000, 0.144000)" id="Read-and-writes-data" stroke="#FFFFFF" stroke-width="2.4">
                            <text>
                                <tspan x="0" y="11.144">Read and writes data</tspan>
                            </text>
                        </g>
                        <g transform="translate(0.000000, 0.144000)" id="Read-and-writes-data">
                            <text>
                                <tspan x="0" y="11.144">Read and writes data</tspan>
                            </text>
                        </g>
                    </g>
                </g>
                <g id="608b06ad-21b4-419f-ae74-d92bdff73eb5" transform="translate(234.000000, 14.400000)" fill="#F5B720" font-size="11.25">
                    <g id="Group">
                        <g transform="translate(0.000000, 0.060000)" id="Amazon" stroke="#FFFFFF" stroke-width="2.4">
                            <text>
                                <tspan x="0" y="11.06">Amazon</tspan>
                            </text>
                        </g>
                        <g transform="translate(0.000000, 0.060000)" id="Amazon">
                            <text>
                                <tspan x="0" y="11.06">Amazon</tspan>
                            </text>
                        </g>
                    </g>
                </g>
                <g id="caa5ce85-f71a-4981-a101-79c34afd02b0" transform="translate(234.000000, 24.600000)" fill="#F5B720" font-size="18.75">
                    <g id="Group">
                        <g transform="translate(0.000000, 0.300000)" id="Cognito" stroke="#FFFFFF" stroke-width="2.4">
                            <text>
                                <tspan x="0" y="18.3">Cognito</tspan>
                            </text>
                        </g>
                        <g transform="translate(0.000000, 0.300000)" id="Cognito">
                            <text>
                                <tspan x="0" y="18.3">Cognito</tspan>
                            </text>
                        </g>
                    </g>
                </g>
                <g id="cf1acdbe-705a-432d-b787-93744e4e620d" transform="translate(31.800000, 0.000000)" fill="#000000" font-size="11.25">
                    <g id="Group">
                        <g transform="translate(0.000000, 0.060000)" id="Authenticates" stroke="#FFFFFF" stroke-width="2.4">
                            <text>
                                <tspan x="0" y="11.06">Authenticates</tspan>
                            </text>
                        </g>
                        <g transform="translate(0.000000, 0.060000)" id="Authenticates">
                            <text>
                                <tspan x="0" y="11.06">Authenticates</tspan>
                            </text>
                        </g>
                    </g>
                </g>
            </g>
        </g>
    </g>
</svg>